<svg width="401" height="401" viewBox="0 0 401 401" fill="none" xmlns="http://www.w3.org/2000/svg">
<rect x="217.214" y="200.048" width="155.84" height="55.2388" rx="27.6194" transform="rotate(45 217.214 200.048)" fill="#004476"/>
<path d="M201.08 222.974C171.557 252.498 123.124 252.507 92.9015 222.284C62.6786 192.061 62.6875 143.628 92.211 114.105C121.734 84.5813 170.167 84.5724 200.39 114.795C230.613 145.018 230.604 193.451 201.08 222.974Z" stroke="#98BCD7" stroke-width="49.4477"/>
<rect width="66.8726" height="11.5298" rx="5.76488" transform="matrix(-0.71051 -0.71051 -0.703687 0.703688 174.459 188.288)" fill="#006DBE"/>
<rect width="66.8726" height="11.5298" rx="5.76488" transform="matrix(-0.703687 0.703688 0.71051 0.71051 166.078 140.963)" fill="#006DBE"/>
<path fill-rule="evenodd" clip-rule="evenodd" d="M154.385 36.5124C150.97 36.2806 148.04 38.8595 147.841 42.2725C147.643 45.6855 150.25 48.6402 153.665 48.8719C181.796 50.7812 209.454 62.5414 231.048 84.1357C246.521 99.6086 256.938 118.186 262.307 137.815C263.212 141.123 266.62 143.097 269.919 142.224C273.218 141.351 275.159 137.962 274.254 134.654C268.326 112.983 256.821 92.474 239.765 75.4184C215.947 51.6002 185.411 38.6182 154.385 36.5124ZM131.83 47.5423C135.251 47.5588 138.01 44.7991 137.994 41.3783C137.977 37.9575 135.191 35.171 131.77 35.1545C128.349 35.138 125.59 37.8977 125.606 41.3185C125.623 44.7393 128.409 47.5258 131.83 47.5423Z" fill="#006DBE"/>
<path d="M234.266 241.365L297.749 304.848" stroke="white" stroke-width="18.7606" stroke-linecap="round"/>
</svg>
