<svg width="136" height="136" viewBox="0 0 136 136" fill="none" xmlns="http://www.w3.org/2000/svg">
<rect x="4" y="4" width="128" height="128" rx="64" fill="black"/>
<path d="M68.0095 38.4891C77.6289 38.4891 78.7581 38.532 82.5601 38.7035C86.0763 38.8608 87.9773 39.4468 89.2494 39.9471C90.936 40.6046 92.1366 41.3764 93.3944 42.6342C94.6522 43.892 95.4384 45.0926 96.0816 46.7792C96.5675 48.0513 97.1679 49.9524 97.3251 53.4685C97.4966 57.2705 97.5395 58.3997 97.5395 68.0191C97.5395 77.6384 97.4966 78.7676 97.3251 82.5696C97.1679 86.0858 96.5818 87.9868 96.0816 89.2589C95.4241 90.9455 94.6522 92.1461 93.3944 93.4039C92.1366 94.6617 90.936 95.4479 89.2494 96.091C87.9773 96.577 86.0763 97.1773 82.5601 97.3346C78.7581 97.5061 77.6289 97.549 68.0095 97.549C58.3902 97.549 57.261 97.5061 53.459 97.3346C49.9428 97.1773 48.0418 96.5913 46.7697 96.091C45.0831 95.4336 43.8825 94.6617 42.6247 93.4039C41.3669 92.1461 40.5807 90.9455 39.9375 89.2589C39.4516 87.9868 38.8512 86.0858 38.694 82.5696C38.5225 78.7676 38.4796 77.6384 38.4796 68.0191C38.4796 58.3997 38.5225 57.2705 38.694 53.4685C38.8512 49.9524 39.4373 48.0513 39.9375 46.7792C40.595 45.0926 41.3669 43.892 42.6247 42.6342C43.8825 41.3764 45.0831 40.5903 46.7697 39.9471C48.0418 39.4611 49.9428 38.8608 53.459 38.7035C57.261 38.5177 58.4045 38.4891 68.0095 38.4891ZM68.0095 32C58.2329 32 57.0037 32.0429 53.1588 32.2144C49.3282 32.3859 46.7126 33.0005 44.4256 33.8867C42.0529 34.8015 40.0519 36.045 38.0508 38.0461C36.0498 40.0471 34.8205 42.0625 33.8915 44.4209C33.0053 46.7078 32.3907 49.3235 32.2192 53.1683C32.0476 56.9989 32.0048 58.2282 32.0048 68.0048C32.0048 77.7814 32.0476 79.0106 32.2192 82.8555C32.3907 86.6861 33.0053 89.3017 33.8915 91.603C34.8062 93.9756 36.0498 95.9767 38.0508 97.9778C40.0519 99.9788 42.0672 101.208 44.4256 102.137C46.7126 103.023 49.3282 103.638 53.1731 103.809C57.018 103.981 58.2329 104.024 68.0238 104.024C77.8147 104.024 79.0297 103.981 82.8746 103.809C86.7052 103.638 89.3208 103.023 91.6221 102.137C93.9947 101.222 95.9958 99.9788 97.9969 97.9778C99.9979 95.9767 101.227 93.9614 102.156 91.603C103.042 89.316 103.657 86.7004 103.829 82.8555C104 79.0106 104.043 77.7957 104.043 68.0048C104.043 58.2139 104 56.9989 103.829 53.154C103.657 49.3235 103.042 46.7078 102.156 44.4066C101.241 42.0339 99.9979 40.0328 97.9969 38.0318C95.9958 36.0307 93.9805 34.8015 91.6221 33.8724C89.3351 32.9862 86.7195 32.3716 82.8746 32.2001C79.0154 32.0429 77.7862 32 68.0095 32Z" fill="white"/>
<path d="M68.0095 49.5234C57.8041 49.5234 49.514 57.7992 49.514 68.0189C49.514 78.2386 57.7898 86.5144 68.0095 86.5144C78.2292 86.5144 86.505 78.2386 86.505 68.0189C86.505 57.7992 78.2292 49.5234 68.0095 49.5234ZM68.0095 80.011C61.3775 80.011 56.0032 74.6367 56.0032 68.0046C56.0032 61.3726 61.3775 55.9983 68.0095 55.9983C74.6416 55.9983 80.0159 61.3726 80.0159 68.0046C80.0159 74.6367 74.6416 80.011 68.0095 80.011Z" fill="white"/>
<path d="M87.234 53.0968C89.618 53.0968 91.5506 51.1642 91.5506 48.7802C91.5506 46.3962 89.618 44.4636 87.234 44.4636C84.8501 44.4636 82.9175 46.3962 82.9175 48.7802C82.9175 51.1642 84.8501 53.0968 87.234 53.0968Z" fill="white"/>
<rect x="4" y="4" width="128" height="128" rx="64" stroke="black" stroke-width="8"/>
</svg>
