<svg width="591" height="486" viewBox="0 0 591 486" fill="none" xmlns="http://www.w3.org/2000/svg">
<path d="M16.9823 -6.10352e-05L590.085 247.18L581.55 360.714L9.2088 106.247L16.9823 -6.10352e-05Z" fill="url(#paint0_linear_14_4)" fill-opacity="0.3"/>
<path d="M17.001 25.7972L590.104 272.978L581.569 360.861L9.22754 106.393L17.001 25.7972Z" fill="url(#paint1_linear_14_4)" fill-opacity="0.2"/>
<path d="M166.542 276.265L224.671 296.225L224.885 202.575L166.542 176.327V276.265Z" fill="url(#paint2_linear_14_4)" fill-opacity="0.8"/>
<path d="M224.885 301.517L134.042 353.283V161.631L224.885 202.584V301.517Z" fill="url(#paint3_linear_14_4)" fill-opacity="0.8"/>
<g style="mix-blend-mode:lighten">
<ellipse cx="248.623" cy="371.181" rx="248.623" ry="114.819" fill="url(#paint4_radial_14_4)" fill-opacity="0.6"/>
</g>
<path d="M166.546 276.271L134.042 353.283V161.631L166.546 176.321V276.271Z" fill="url(#paint5_linear_14_4)"/>
<path d="M212.032 117.197L224.122 55.3833L341.377 55.6384L260.779 121.391L212.032 117.197Z" fill="url(#paint6_linear_14_4)" fill-opacity="0.8"/>
<g opacity="0.7">
<path d="M260.778 121.39L212.029 117.197L166.542 176.319V276.267L218.02 275.309L260.361 218.106L260.778 121.39Z" fill="url(#paint7_linear_14_4)"/>
<path d="M260.778 121.39L212.029 117.197L166.542 176.319V276.267L218.02 275.309L260.361 218.106L260.778 121.39Z" fill="url(#paint8_radial_14_4)"/>
<path d="M260.778 121.39L212.029 117.197L166.542 176.319V276.267L218.02 275.309L260.361 218.106L260.778 121.39Z" fill="url(#paint9_linear_14_4)"/>
</g>
<path d="M212.029 117.197L270.155 137.158L224.89 202.583L166.551 176.322L212.029 117.197Z" fill="url(#paint10_linear_14_4)" fill-opacity="0.8"/>
<path d="M260.246 218.15L318.826 243.809L273.343 298.723L218.021 275.304L260.246 218.15Z" fill="url(#paint11_linear_14_4)" fill-opacity="0.8"/>
<path d="M212.029 117.198L270.155 137.159L318.905 141.355L260.775 121.391L212.029 117.198Z" fill="url(#paint12_linear_14_4)" fill-opacity="0.8"/>
<path d="M166.528 276.258L224.894 301.535L273.408 298.756L218.026 275.31L166.528 276.258Z" fill="url(#paint13_linear_14_4)"/>
<path d="M270.307 137.437L224.123 55.3833L134.042 161.63L224.895 202.575L270.307 137.437Z" fill="url(#paint14_linear_14_4)" fill-opacity="0.9"/>
<path d="M318.795 243.829L341.144 253.813V55.2375L318.853 141.372L318.795 243.829Z" fill="url(#paint15_linear_14_4)" fill-opacity="0.9"/>
<path d="M224.885 301.525L134.042 353.282L251.711 369.606L273.317 298.72L224.885 301.525Z" fill="url(#paint16_linear_14_4)" fill-opacity="0.9"/>
<path d="M318.814 243.81L341.134 253.812L251.71 369.605L273.316 298.719L318.814 243.81Z" fill="url(#paint17_linear_14_4)"/>
<path d="M270.306 137.437L224.122 55.3833H341.182L318.852 141.372L270.306 137.437Z" fill="url(#paint18_linear_14_4)"/>
<path d="M270.306 137.437L224.122 55.3833H341.182L318.852 141.372L270.306 137.437Z" fill="url(#paint19_linear_14_4)" fill-opacity="0.6"/>
<path d="M134.194 353.429L166.584 276.185L224.886 301.526L134.194 353.429Z" fill="url(#paint20_linear_14_4)"/>
<path d="M17.8968 212.257L591 459.438L581.55 360.843L9.2088 106.375L17.8968 212.257Z" fill="url(#paint21_linear_14_4)" fill-opacity="0.4"/>
<path d="M17.8968 189.011L591 436.192L581.55 360.843L9.2088 106.375L17.8968 189.011Z" fill="url(#paint22_linear_14_4)" fill-opacity="0.3"/>
<g opacity="0.7">
<path d="M318.905 141.352L270.268 137.16L224.885 202.569V301.526L273.416 298.72L318.815 243.778L318.905 141.352Z" fill="url(#paint23_linear_14_4)"/>
<path d="M318.905 141.352L270.268 137.16L224.885 202.569V301.526L273.416 298.72L318.815 243.778L318.905 141.352Z" fill="url(#paint24_radial_14_4)"/>
<path d="M318.905 141.352L270.268 137.16L224.885 202.569V301.526L273.416 298.72L318.815 243.778L318.905 141.352Z" fill="url(#paint25_linear_14_4)"/>
</g>
<defs>
<linearGradient id="paint0_linear_14_4" x1="92.8044" y1="72.7133" x2="515.551" y2="331.758" gradientUnits="userSpaceOnUse">
<stop stop-color="#9492ED" stop-opacity="0"/>
<stop offset="0.546875" stop-color="#7674EC"/>
<stop offset="1" stop-color="#817FDF" stop-opacity="0"/>
</linearGradient>
<linearGradient id="paint1_linear_14_4" x1="92.8232" y1="72.8598" x2="515.57" y2="331.904" gradientUnits="userSpaceOnUse">
<stop stop-color="#232183" stop-opacity="0"/>
<stop offset="0.546875" stop-color="#232183"/>
<stop offset="1" stop-color="#232183" stop-opacity="0"/>
</linearGradient>
<linearGradient id="paint2_linear_14_4" x1="166.542" y1="198.191" x2="226.323" y2="203.4" gradientUnits="userSpaceOnUse">
<stop stop-color="#548DD1"/>
<stop offset="0.59375" stop-color="#E39DE5"/>
<stop offset="1" stop-color="white"/>
</linearGradient>
<linearGradient id="paint3_linear_14_4" x1="123.745" y1="242.295" x2="254.679" y2="272.697" gradientUnits="userSpaceOnUse">
<stop offset="0.0340296" stop-color="#2B79ED" stop-opacity="0.8"/>
<stop offset="0.791667" stop-color="#FCA6EF" stop-opacity="0.8"/>
<stop offset="1" stop-color="white"/>
</linearGradient>
<radialGradient id="paint4_radial_14_4" cx="0" cy="0" r="1" gradientUnits="userSpaceOnUse" gradientTransform="translate(248.623 371.181) rotate(90) scale(114.819 248.623)">
<stop offset="0.0729167" stop-color="white"/>
<stop offset="0.34375" stop-color="#A873FF" stop-opacity="0.8"/>
<stop offset="1" stop-color="#0E7DFF" stop-opacity="0"/>
</radialGradient>
<linearGradient id="paint5_linear_14_4" x1="166.546" y1="171.17" x2="152.699" y2="321.254" gradientUnits="userSpaceOnUse">
<stop stop-color="#2295D6"/>
<stop offset="1" stop-color="#2249D6" stop-opacity="0.3"/>
</linearGradient>
<linearGradient id="paint6_linear_14_4" x1="216.017" y1="70.4387" x2="258.198" y2="131.496" gradientUnits="userSpaceOnUse">
<stop stop-color="#4B86FA" stop-opacity="0.8"/>
<stop offset="0.534769" stop-color="#FCA6EF" stop-opacity="0.8"/>
<stop offset="0.716558" stop-color="white"/>
</linearGradient>
<linearGradient id="paint7_linear_14_4" x1="263.826" y1="141.484" x2="106.11" y2="254.315" gradientUnits="userSpaceOnUse">
<stop stop-color="#324BCC"/>
<stop offset="1" stop-color="white" stop-opacity="0.8"/>
</linearGradient>
<radialGradient id="paint8_radial_14_4" cx="0" cy="0" r="1" gradientUnits="userSpaceOnUse" gradientTransform="translate(215.184 317.324) rotate(-90) scale(122.734 73.8502)">
<stop stop-color="#00F0FF"/>
<stop offset="1" stop-color="#00F0FF" stop-opacity="0"/>
</radialGradient>
<linearGradient id="paint9_linear_14_4" x1="166.543" y1="258.307" x2="212.671" y2="201.468" gradientUnits="userSpaceOnUse">
<stop stop-color="white"/>
<stop offset="1" stop-color="white" stop-opacity="0"/>
</linearGradient>
<linearGradient id="paint10_linear_14_4" x1="194.479" y1="138.26" x2="242.149" y2="170.518" gradientUnits="userSpaceOnUse">
<stop stop-color="#4078CB"/>
<stop offset="0.59375" stop-color="#E39DE5"/>
<stop offset="1" stop-color="white"/>
</linearGradient>
<linearGradient id="paint11_linear_14_4" x1="315.118" y1="247.763" x2="216.149" y2="282.503" gradientUnits="userSpaceOnUse">
<stop stop-color="#4078CB"/>
<stop offset="1" stop-color="#E39DE5"/>
</linearGradient>
<linearGradient id="paint12_linear_14_4" x1="250.671" y1="120.35" x2="249.638" y2="137.017" gradientUnits="userSpaceOnUse">
<stop stop-color="#4078CB"/>
<stop offset="0.59375" stop-color="#E39DE5"/>
<stop offset="1" stop-color="white"/>
</linearGradient>
<linearGradient id="paint13_linear_14_4" x1="205.174" y1="277.752" x2="204.14" y2="294.419" gradientUnits="userSpaceOnUse">
<stop stop-color="#4078CB"/>
<stop offset="0.59375" stop-color="#E39DE5"/>
<stop offset="1" stop-color="white"/>
</linearGradient>
<linearGradient id="paint14_linear_14_4" x1="165.395" y1="120.684" x2="228.854" y2="188.904" gradientUnits="userSpaceOnUse">
<stop offset="0.0729167" stop-color="#4B86FA" stop-opacity="0.8"/>
<stop offset="0.791667" stop-color="#FCA6EF" stop-opacity="0.8"/>
<stop offset="1" stop-color="white"/>
</linearGradient>
<linearGradient id="paint15_linear_14_4" x1="345.602" y1="55.2376" x2="396.415" y2="78.9243" gradientUnits="userSpaceOnUse">
<stop offset="0.00889157" stop-color="#1D2A9B" stop-opacity="0.8"/>
<stop offset="0.645598" stop-color="#FCA6EF" stop-opacity="0.8"/>
<stop offset="1" stop-color="white"/>
</linearGradient>
<linearGradient id="paint16_linear_14_4" x1="134.042" y1="344.004" x2="283.389" y2="320.324" gradientUnits="userSpaceOnUse">
<stop offset="0.0340296" stop-color="#4B5CFA" stop-opacity="0.8"/>
<stop offset="0.791667" stop-color="#FCA6EF" stop-opacity="0.8"/>
<stop offset="1" stop-color="white"/>
</linearGradient>
<linearGradient id="paint17_linear_14_4" x1="323.653" y1="287.406" x2="292.163" y2="269.903" gradientUnits="userSpaceOnUse">
<stop offset="0.0340296" stop-color="#4B5CFA" stop-opacity="0.8"/>
<stop offset="0.539474" stop-color="#FCA6EF" stop-opacity="0.8"/>
<stop offset="1" stop-color="white"/>
</linearGradient>
<linearGradient id="paint18_linear_14_4" x1="337.701" y1="84.3628" x2="291.882" y2="153.09" gradientUnits="userSpaceOnUse">
<stop stop-color="#0A3892"/>
<stop offset="0.536458" stop-color="#29B2ED" stop-opacity="0.8"/>
<stop offset="0.967948" stop-color="white"/>
</linearGradient>
<linearGradient id="paint19_linear_14_4" x1="317.557" y1="145.744" x2="281.7" y2="79.0778" gradientUnits="userSpaceOnUse">
<stop stop-color="#FF439D"/>
<stop offset="1" stop-color="#FF43D6" stop-opacity="0"/>
</linearGradient>
<linearGradient id="paint20_linear_14_4" x1="160.258" y1="272.25" x2="223.07" y2="317.436" gradientUnits="userSpaceOnUse">
<stop stop-color="#5BE2FF"/>
<stop offset="1" stop-color="#FF93E1" stop-opacity="0.6"/>
</linearGradient>
<linearGradient id="paint21_linear_14_4" x1="92.8045" y1="72.8414" x2="515.551" y2="331.886" gradientUnits="userSpaceOnUse">
<stop stop-color="#232183" stop-opacity="0"/>
<stop offset="0.546875" stop-color="#232183"/>
<stop offset="1" stop-color="#232183" stop-opacity="0"/>
</linearGradient>
<linearGradient id="paint22_linear_14_4" x1="92.8045" y1="72.8413" x2="515.551" y2="331.886" gradientUnits="userSpaceOnUse">
<stop stop-color="#232183" stop-opacity="0"/>
<stop offset="0.546875" stop-color="#8A88EC"/>
<stop offset="1" stop-color="#232183" stop-opacity="0"/>
</linearGradient>
<linearGradient id="paint23_linear_14_4" x1="321.947" y1="161.441" x2="164.371" y2="273.94" gradientUnits="userSpaceOnUse">
<stop stop-color="#324BCC"/>
<stop offset="1" stop-color="white" stop-opacity="0.8"/>
</linearGradient>
<radialGradient id="paint24_radial_14_4" cx="0" cy="0" r="1" gradientUnits="userSpaceOnUse" gradientTransform="translate(273.416 337.243) rotate(-90) scale(122.707 73.6818)">
<stop stop-color="#00F0FF"/>
<stop offset="1" stop-color="#00F0FF" stop-opacity="0"/>
</radialGradient>
<linearGradient id="paint25_linear_14_4" x1="240.307" y1="281.544" x2="278.337" y2="230.427" gradientUnits="userSpaceOnUse">
<stop stop-color="white"/>
<stop offset="1" stop-color="white" stop-opacity="0"/>
</linearGradient>
</defs>
</svg>
